<svg width="86" height="64" fill="none" xmlns="http://www.w3.org/2000/svg"><path opacity=".29" d="M51.6 54.77l.86-.54h-.01v-.02l-.84.56zm-3.48-8.07l-.96.26.96-.26zm4.58-30.52l.84.54.01-.01-.85-.53zm17-14.39l.9-.45-.44-.86-.88.4.42.91zm1.97 3.93l.38.92.99-.41-.48-.96-.9.45zm-10.9 8.06l.75.66.01-.01-.76-.65zM55.1 24.9l.97.24v-.04l.02-.05-1-.15zm0 9.16l-.95.31.54 1.61 1.14-1.25-.73-.67zm25.07-.88l.69-.72h-.01l-.01-.02-.67.74zm-.22 24.42l-.67-.74h-.01l-.01.02.69.72zM6.7 54.77l.85-.54-.02-.02-.83.56zM3.21 46.7l-.96.26.96-.26zM7.8 16.18l.84.54.01-.01-.85-.53zm17-14.39l.9-.45-.43-.86-.88.4.42.91zm1.97 3.93l.38.92 1-.41-.49-.96-.9.45zm-10.9 8.06l.75.66.01-.01-.76-.65zM10.19 24.9l.97.24.01-.04v-.05l-.98-.15zm0 9.16l-.95.31.54 1.61 1.15-1.25-.74-.67zm25.07-.88l.69-.72-.02-.02-.67.74zm-.22 24.42l-.67-.74h-.01l-.01.02.7.72zm32.05 3.8c-6.85 0-11.66-2.43-14.63-7.17l-1.7 1.07c3.42 5.43 8.94 8.1 16.33 8.1v-2zM52.44 54.2a26.55 26.55 0 01-3.35-7.77l-1.93.52c.89 3.28 2.1 6.07 3.62 8.36l1.66-1.1zm-3.35-7.77a36.94 36.94 0 01-1.28-9.77h-2c0 3.57.45 7 1.35 10.3l1.93-.53zm-1.28-9.77a36.1 36.1 0 015.73-19.95l-1.68-1.08a38.09 38.09 0 00-6.05 21.03h2zm5.74-19.96c3.66-5.92 9.16-10.6 16.57-14.01L69.28.88c-7.7 3.56-13.53 8.48-17.43 14.77l1.7 1.06zM68.81 2.24l1.96 3.92 1.79-.9-1.96-3.92-1.8.9zm2.47 2.55A29.14 29.14 0 0060 13.14l1.53 1.29a27.14 27.14 0 0110.52-7.79l-.77-1.85zm-11.27 8.33c-3.29 3.74-5.28 7.62-5.9 11.63l1.98.3c.54-3.54 2.32-7.08 5.43-10.6l-1.5-1.33zm-5.88 11.54a21.66 21.66 0 00-.69 5.25h2c0-1.5.2-3.1.63-4.77l-1.94-.48zm-.69 5.25c0 1.56.24 3.05.7 4.46l1.9-.63c-.4-1.2-.6-2.47-.6-3.83h-2zm2.4 4.82c2.98-3.26 6.92-4.9 11.9-4.9v-2c-5.48 0-9.97 1.83-13.38 5.55l1.47 1.35zm11.9-4.9c4.89 0 8.77 1.38 11.75 4.1l1.35-1.49c-3.41-3.1-7.81-4.62-13.1-4.62v2zm11.74 4.08c2.96 2.83 4.48 6.69 4.48 11.7h2c0-5.45-1.67-9.87-5.1-13.15l-1.38 1.45zm4.48 11.7c0 4.69-1.57 8.4-4.68 11.25l1.34 1.48c3.57-3.26 5.34-7.54 5.34-12.73h-2zm-4.7 11.27c-3.13 3-7.16 4.52-12.17 4.52v2c5.45 0 10-1.68 13.55-5.08l-1.38-1.44zM22.18 61.4c-6.85 0-11.65-2.43-14.63-7.17l-1.7 1.07c3.42 5.43 8.94 8.1 16.33 8.1v-2zM7.53 54.2a26.55 26.55 0 01-3.35-7.77l-1.93.52c.9 3.28 2.1 6.07 3.62 8.36l1.66-1.1zm-3.35-7.77a36.95 36.95 0 01-1.27-9.77h-2c0 3.57.44 7 1.34 10.3l1.93-.53zM2.9 36.67a36.1 36.1 0 015.72-19.95l-1.68-1.08A38.09 38.09 0 00.91 36.67h2zm5.73-19.96C12.3 10.79 17.81 6.1 25.21 2.7L24.38.88C16.67 4.44 10.84 9.36 6.94 15.65l1.7 1.06zM23.9 2.24l1.96 3.92 1.8-.9-1.97-3.92-1.79.9zm2.47 2.55a29.14 29.14 0 00-11.28 8.35l1.53 1.29a27.14 27.14 0 0110.52-7.79l-.77-1.85zm-11.26 8.33c-3.3 3.74-5.3 7.62-5.9 11.63l1.97.3c.54-3.54 2.32-7.08 5.43-10.6l-1.5-1.33zM9.2 24.66a21.67 21.67 0 00-.67 5.25h2c0-1.5.2-3.1.62-4.77l-1.94-.48zm-.67 5.25c0 1.56.23 3.05.7 4.46l1.9-.63c-.4-1.2-.6-2.47-.6-3.83h-2zm2.39 4.82c2.98-3.26 6.92-4.9 11.9-4.9v-2c-5.48 0-9.97 1.83-13.38 5.55l1.48 1.35zm11.9-4.9c4.89 0 8.78 1.38 11.76 4.1l1.34-1.49c-3.41-3.1-7.8-4.62-13.1-4.62v2zm11.74 4.08c2.96 2.83 4.49 6.69 4.49 11.7h2c0-5.45-1.68-9.87-5.11-13.15l-1.38 1.45zm4.49 11.7c0 4.69-1.58 8.4-4.7 11.25l1.36 1.48c3.57-3.26 5.34-7.54 5.34-12.73h-2zm-4.71 11.27c-3.13 3-7.16 4.52-12.17 4.52v2c5.45 0 10-1.68 13.55-5.08l-1.38-1.44z" fill="#964F4C"/></svg>