<svg width="247" height="25" fill="none" xmlns="http://www.w3.org/2000/svg"><path d="M.98 24.22H10v-.45c-3.25-.42-4.22-1.79-4.22-5.07V3.78h.2l8.44 20.48h1.17l7.58-20.48h.16v18.14c0 1.3-.81 1.75-3.12 1.85v.45h11.22v-.45c-2.74-.1-3.39-.62-3.39-1.85V3.87c0-1.23.65-1.78 3.39-1.88v-.42h-8.3L17 18.27h-.16l-6.7-16.7H.98v.42c2.8.06 4 1.56 4 3.5v13.2c0 3.3-.95 4.69-4 5.08v.45z" fill="#fff"/><path d="M47.46 21.23c.62 1.73.04 2.4-3.08 2.54v.45H56v-.45c-2.43-.36-2.92-.88-3.64-2.76L45.03 1.05h-2.21l-6.73 17.42c-1.34 3.35-2.57 4.75-4.68 5.3v.45h7.67v-.45c-3.03-.42-3.55-1.66-2.21-5.17l1.1-3h7.48l2.01 5.63zm-9.23-6.27l3.51-9.4h.17l3.31 9.4h-6.99zM56.37 24.22h11.15c8.42 0 11.84-5.65 11.84-11.73 0-6.37-4.1-10.92-12.36-10.92H56.37v.42c2.7.1 3.38.65 3.38 1.88v18.05c0 1.23-.68 1.75-3.38 1.85v.45zm8.13-.61V2.15h1.95c5.14 0 7.74 2.3 7.74 10.66 0 8.33-2.02 10.8-7.67 10.8H64.5zM87.96 24.22h11.25v-.45c-2.34-.1-3.12-.52-3.12-1.85v-9.14h9.17v9.14c0 1.33-.82 1.75-3.16 1.85v.45h11.28v-.45c-2.73-.1-3.38-.59-3.38-1.85V3.84c0-1.23.65-1.75 3.38-1.85v-.42H102.1v.42c2.34.1 3.16.55 3.16 1.85v8.3h-9.17v-8.3c0-1.3.78-1.75 3.12-1.85v-.42H87.96v.42c2.7.1 3.38.62 3.38 1.85v18.08c0 1.26-.68 1.75-3.38 1.85v.45z" fill="#fff"/><path d="M129.4 21.23c.62 1.73.03 2.4-3.09 2.54v.45h11.64v-.45c-2.44-.36-2.92-.88-3.64-2.76l-7.35-19.96h-2.2l-6.74 17.42c-1.33 3.35-2.56 4.75-4.68 5.3v.45h7.67v-.45c-3.02-.42-3.54-1.66-2.2-5.17l1.1-3h7.48l2.01 5.63zm-9.23-6.27l3.51-9.4h.16l3.32 9.4h-6.99zM140.8 24.22h12.29v-.45c-2.9-.07-3.77-.62-3.77-1.85V2.15h.78c2.5 0 4.45 2.5 6.73 6.92l.49-.06-.17-7.44h-20.44L136.5 9l.49.06c2.3-4.51 4.29-6.92 6.76-6.92h.81v19.77c0 1.23-.9 1.78-3.77 1.85v.45zM163.94 24.22h12.3v-.45c-2.9-.07-3.78-.62-3.78-1.85V2.15h.78c2.5 0 4.46 2.5 6.73 6.92l.49-.06-.16-7.44h-20.45l-.2 7.44.5.06c2.3-4.51 4.28-6.92 6.75-6.92h.82v19.77c0 1.23-.91 1.78-3.78 1.85v.45zM182.85 24.22h20.25l.17-8.16-.5-.06c-2.36 5.6-3.86 7.6-8.57 7.6h-3.22V12.76h1.36c2.6 0 4.1 1.14 4.98 4.48h.42V7.74h-.42c-.88 3.32-2.38 4.42-4.98 4.42h-1.36v-10h3.38c4 0 5.23 2.14 7.5 7.17l.5-.03-.1-7.73h-19.4v.42c2.69.1 3.37.65 3.37 1.88v18.05c0 1.23-.68 1.75-3.38 1.85v.45zM214.22 12.49V2.15h1.85c4.06 0 5.3 1.95 5.3 5.2 0 3.68-.88 5.14-4.94 5.14h-2.21zm0 .55h1.82c3.7 0 4.58 1.1 4.9 4.39l.27 2.83c.26 2.86.94 4.13 5 4.13 1.07 0 2.25-.1 3.45-.3v-.39c-2.7-.06-3.16-.48-3.54-3.12l-.2-2.5c-.42-3.06-1.69-5.17-6.47-5.33v-.1c5.1-.71 6.9-2.8 6.9-5.6 0-2.98-2.41-5.48-9.17-5.48h-11.09v.42c2.7.1 3.38.65 3.38 1.88v18.05c0 1.23-.68 1.75-3.38 1.85v.45h11.34v-.45c-2.37-.1-3.21-.55-3.21-1.85v-8.88zM230.87 24.78h.39l1.92-1.63c1.56.88 3.93 1.5 5.75 1.5 5.6 0 7.87-3.84 7.87-7.61 0-4.23-3.38-5.6-6.5-6.57-3.8-1.2-5.82-2.4-5.82-4.94 0-2.44 1.95-3.77 4-3.77 2.53 0 4.61 2.08 6.76 6.53h.52V.95h-.4l-1.42 1.43a10.58 10.58 0 00-4.98-1.24c-4.55 0-7.77 2.8-7.77 7.09 0 4.2 3.45 5.46 6.86 6.6 3.9 1.3 5.85 2.57 5.85 5.2 0 2.05-1.53 4-4.48 4-3.22 0-5.89-2.96-8.03-7.48h-.52v8.23z" fill="#fff"/></svg>