<svg width="86" height="64" fill="none" xmlns="http://www.w3.org/2000/svg"><path opacity=".29" d="M34.4 9.23l-.86.54h.01v.02l.84-.56zm3.48 8.07l.96-.26-.96.26zM33.3 47.82l-.84-.54-.01.01.85.53zm-17 14.39l-.9.45.44.86.88-.4-.42-.91zm-1.97-3.93l-.38-.92-.99.41.48.96.9-.45zm10.9-8.06l-.75-.66-.01.01.76.65zM30.9 39.1l-.97-.24v.04l-.02.05 1 .15zm0-9.16l.95-.31-.54-1.61-1.14 1.25.73.67zm-25.07.88l-.69.72h.01l.01.02.67-.74zM6.05 6.4l.67.74h.01l.01-.02-.69-.72zM79.3 9.23l-.85.54.02.02.83-.56zm3.49 8.07l.96-.26-.96.26zM78.2 47.82l-.84-.54-.01.01.85.53zm-17 14.39l-.9.45.43.86.88-.4-.42-.91zm-1.97-3.93l-.38-.92-1 .41.49.96.9-.45zm10.9-8.06l-.75-.66-.01.01.76.65zm5.67-11.12l-.97-.24-.01.04v.05l.98.15zm0-9.16l.95-.31-.54-1.61-1.15 1.25.74.67zm-25.07.88l-.69.72.02.02.67-.74zm.22-24.42l.67.74h.01l.01-.02-.7-.72zM18.9 2.6c6.85 0 11.66 2.43 14.63 7.17l1.7-1.07C31.82 3.27 26.3.6 18.9.6v2zM33.56 9.8a26.55 26.55 0 013.35 7.77l1.93-.52c-.89-3.28-2.1-6.07-3.62-8.36l-1.66 1.1zm3.35 7.77c.85 3.11 1.28 6.36 1.28 9.77h2c0-3.57-.45-7-1.35-10.3l-1.93.53zm1.28 9.77a36.1 36.1 0 01-5.73 19.95l1.68 1.08a38.09 38.09 0 006.05-21.03h-2zm-5.74 19.96c-3.66 5.92-9.16 10.6-16.57 14.01l.84 1.82c7.7-3.56 13.53-8.48 17.43-14.77l-1.7-1.06zM17.19 61.76l-1.96-3.92-1.79.9 1.96 3.92 1.8-.9zm-2.47-2.55c4.37-1.81 8.13-4.6 11.28-8.35l-1.53-1.29a27.14 27.14 0 01-10.52 7.79l.77 1.85zm11.27-8.33c3.29-3.74 5.28-7.62 5.9-11.63l-1.98-.3c-.54 3.54-2.32 7.08-5.43 10.6l1.5 1.33zm5.88-11.54c.46-1.81.69-3.56.69-5.25h-2c0 1.5-.2 3.1-.63 4.77l1.94.48zm.69-5.25c0-1.56-.24-3.05-.7-4.46l-1.9.63c.4 1.2.6 2.47.6 3.83h2zm-2.4-4.82c-2.98 3.26-6.92 4.9-11.9 4.9v2c5.48 0 9.97-1.83 13.38-5.55l-1.47-1.35zm-11.9 4.9c-4.89 0-8.77-1.38-11.75-4.1l-1.35 1.49c3.41 3.1 7.81 4.62 13.1 4.62v-2zM6.52 30.1c-2.96-2.83-4.48-6.69-4.48-11.7h-2c0 5.45 1.67 9.87 5.1 13.15l1.38-1.45zM2.04 18.4c0-4.69 1.57-8.4 4.68-11.25L5.38 5.66C1.8 8.92.04 13.2.04 18.4h2zm4.7-11.27c3.13-3 7.16-4.52 12.17-4.52v-2c-5.45 0-10 1.68-13.55 5.08l1.38 1.44zM63.82 2.6c6.85 0 11.65 2.43 14.63 7.17l1.7-1.07C76.73 3.27 71.2.6 63.82.6v2zM78.47 9.8a26.55 26.55 0 013.35 7.77l1.93-.52c-.9-3.28-2.1-6.07-3.62-8.36l-1.66 1.1zm3.35 7.77c.85 3.11 1.27 6.36 1.27 9.77h2c0-3.57-.44-7-1.34-10.3l-1.93.53zm1.27 9.77a36.1 36.1 0 01-5.72 19.95l1.68 1.08a38.09 38.09 0 006.04-21.03h-2zm-5.73 19.96c-3.66 5.92-9.17 10.6-16.57 14.01l.83 1.82c7.71-3.56 13.54-8.48 17.44-14.77l-1.7-1.06zM62.1 61.76l-1.96-3.92-1.8.9 1.97 3.92 1.79-.9zm-2.47-2.55c4.36-1.81 8.13-4.6 11.28-8.35l-1.53-1.29a27.14 27.14 0 01-10.52 7.79l.77 1.85zm11.26-8.33c3.3-3.74 5.3-7.62 5.9-11.63l-1.97-.3c-.54 3.54-2.32 7.08-5.43 10.6l1.5 1.33zm5.9-11.54c.44-1.81.67-3.56.67-5.25h-2c0 1.5-.2 3.1-.62 4.77l1.94.48zm.67-5.25c0-1.56-.23-3.05-.7-4.46l-1.9.63c.4 1.2.6 2.47.6 3.83h2zm-2.39-4.82c-2.98 3.26-6.92 4.9-11.9 4.9v2c5.48 0 9.97-1.83 13.38-5.55l-1.48-1.35zm-11.9 4.9c-4.89 0-8.78-1.38-11.76-4.1l-1.34 1.49c3.41 3.1 7.8 4.62 13.1 4.62v-2zM51.43 30.1c-2.96-2.83-4.49-6.69-4.49-11.7h-2c0 5.45 1.68 9.87 5.11 13.15l1.38-1.45zm-4.49-11.7c0-4.69 1.58-8.4 4.7-11.25l-1.36-1.48c-3.57 3.26-5.34 7.54-5.34 12.73h2zm4.71-11.27c3.13-3 7.16-4.52 12.17-4.52v-2c-5.45 0-10 1.68-13.55 5.08l1.38 1.44z" fill="#964F4C"/></svg>